<svg width="298" height="65" viewBox="0 0 298 65" fill="none" xmlns="http://www.w3.org/2000/svg">
<path fill-rule="evenodd" clip-rule="evenodd" d="M263.036 49.4106H274.389V32.5413C274.389 28.8047 276.13 25.7573 280.228 25.7573C283.638 25.7573 285.705 27.7163 285.705 31.6344V49.4106H297.058V29.1312C297.058 21.1138 292.56 15.6721 283.493 15.6721C278.378 15.6721 275.694 17.4134 273.772 19.6264H273.119L272.067 16.6153H263.036V49.4106ZM217.951 37.33H240.33V27.535H217.951V37.33ZM252.554 12.3345C255.963 12.3345 258.792 9.50482 258.792 6.16725C258.792 2.75712 255.891 0 252.554 0C249.362 0 246.351 2.64829 246.351 6.16725C246.351 9.61366 249.18 12.3345 252.554 12.3345ZM246.859 49.4106H258.212V16.6153H246.859V49.4106ZM155.493 64.3208C168.405 64.3208 175.333 56.9201 175.333 44.1503V34.0287H164.053C163.618 37.8016 160.462 40.3773 156.617 40.3773H148.892V25.6848H156.617C160.426 25.6848 163.545 28.1517 164.053 31.9971H175.333V16.6153H168.333L166.556 19.9166H165.975C163.219 16.8692 159.41 15.6721 155.13 15.6721C144.394 15.6721 138.047 23.8709 138.047 33.5208C138.047 42.554 144.467 49.6645 155.058 49.6645C158.721 49.6645 161.405 48.3948 163.473 46.472H164.053V47.5604C164.053 52.8932 159.483 54.6346 154.223 54.6346C150.306 54.6346 145.809 53.4011 142.472 51.297H141.783V61.4186C146.389 63.2687 151.14 64.3208 155.493 64.3208ZM23.7937 50.3901C30.54 50.3901 34.4573 49.3017 37.7942 47.6329V36.8584H37.105C34.4573 38.4546 30.7939 39.6518 26.0062 39.6518C17.1924 39.6518 12.586 33.9562 12.586 27.281C12.586 20.6059 17.1924 14.9465 26.0062 14.9465C30.6851 14.9465 34.4573 16.2525 37.105 17.7762H37.7942V7.00164C34.4573 5.33286 30.54 4.24452 23.7937 4.24452C9.68431 4.24452 0 14.0758 0 27.281C0 40.4862 9.68431 50.3901 23.7937 50.3901ZM40.8772 49.4106H52.23V32.5413C52.23 28.8047 53.971 25.7573 58.0696 25.7573C61.479 25.7573 63.5102 27.7163 63.5102 31.6344V49.4106H74.863V29.1312C74.863 21.1138 70.4016 15.6721 61.3339 15.6721C56.4011 15.6721 54.2249 17.1957 52.3025 18.8645H51.7222V4.24452H40.8772V49.4106ZM94.1953 50.3901C98.4753 50.3901 102.211 49.1203 104.569 46.1455H105.149L106.89 49.4106H114.144V16.6153H107.035L105.294 19.9166H104.714C102.32 16.9418 98.5478 15.6721 94.2316 15.6721C84.0757 15.6721 77.8372 23.0365 77.2206 31.9971H87.8842C88.392 28.1517 91.5113 25.6848 95.3197 25.6848H101.087L101.123 28.8047H104.678V30.5823H101.123L101.196 35.4436H104.678V37.2574H101.196L101.232 40.3773H95.3197C91.4387 40.3773 88.3194 37.8016 87.8479 34.0287H77.1843C77.4382 42.8442 83.7856 50.3901 94.1953 50.3901ZM118.243 49.4106H129.197V34.1375C129.197 28.0428 133.259 26.3741 137.176 26.3741H138.446V15.6721H137.249C133.44 15.7809 130.502 17.4134 128.58 19.6264H128L126.912 16.6153H118.243V49.4106ZM202.464 29.3851H188.608C189.624 25.2857 192.453 23.7621 195.79 23.7621C199.78 23.7621 202.355 26.2652 202.464 29.0949V29.3851ZM211.858 29.9656C211.858 22.3472 206.054 15.6721 195.681 15.6721C185.525 15.6721 178.017 22.2021 178.017 33.1943C178.017 43.7875 185.453 50.4626 196.552 50.4626C202.101 50.4626 206.127 49.6282 209.609 47.7055V39.7243H208.811C205.619 41.0304 202.681 41.6108 198.22 41.6108C194.339 41.6108 189.841 40.6313 188.536 36.1328H210.697C211.64 34.2101 211.858 32.106 211.858 29.9656Z" fill="#369C96"/>
</svg>
